<svg xmlns="http://www.w3.org/2000/svg">
    <symbol id="telegram" viewBox="0 0 22 18">
      <path  clip-rule="evenodd" d="M1.489 7.73048C7.30481 5.19653 11.1826 3.52583 13.1225 2.71839C18.663 0.415133 19.8202 0.015133 20.5644 0.000249262C20.8403 -0.00511507 21.111 0.0762228 21.3383 0.232807C21.4978 0.370338 21.5995 0.563045 21.623 0.772343C21.663 1.03264 21.6743 1.29656 21.6564 1.55932C21.3569 4.72211 20.0564 12.3668 19.396 15.8998C19.1169 17.3882 18.5662 17.8961 18.0323 17.9463C16.875 18.0523 15.9857 17.1798 14.8695 16.4449C13.1132 15.2933 12.1216 14.5844 10.4174 13.4533C8.44714 12.1509 9.72528 11.4421 10.8471 10.2775C11.1411 9.97234 16.2425 5.32862 16.343 4.90816C16.3562 4.84607 16.3547 4.78173 16.3385 4.72034C16.3224 4.65894 16.292 4.6022 16.2499 4.55467C16.1889 4.5165 16.1197 4.4931 16.048 4.48631C15.9763 4.47953 15.904 4.48956 15.8369 4.5156C15.662 4.55405 12.8577 6.40769 7.42389 10.0765C6.62761 10.6235 5.90637 10.8902 5.26016 10.8765C4.54761 10.8598 3.1783 10.4728 2.15876 10.1323C0.910389 9.72676 -0.0737883 9.51281 0.00435126 8.83002C0.0502427 8.47281 0.545123 8.1063 1.489 7.73048Z"/>
    </symbol>
    <symbol id="vk" viewBox="0 0 23 15" >
      <path d="M12.3609 14.1656C4.60651 14.1656 0.186047 8.84837 0 0H3.88279C4.01116 6.49302 6.87442 9.24465 9.14233 9.81209V0H12.8019V5.6C15.0344 5.36 17.3953 2.8093 18.1879 0H21.8474C21.2372 3.4586 18.6847 6.01116 16.8707 7.06046C18.2894 7.765 19.5425 8.76265 20.5469 9.98747C21.5514 11.2123 22.2845 12.6364 22.6977 14.1656H18.6716C17.8065 11.4716 15.6502 9.38791 12.8019 9.10512V14.1656H12.3609Z"/>
    </symbol>
    <symbol id="youtube" viewBox="0 0 21 15" >
      <path d="M20.2977 2.26604C20.1798 1.82671 19.9484 1.42611 19.6267 1.10445C19.305 0.782798 18.9045 0.551401 18.4651 0.433486C16.8502 -2.48399e-06 10.3665 0 10.3665 0C10.3665 0 3.88278 -2.48399e-06 2.26603 0.433486C1.8272 0.552428 1.42715 0.784171 1.10565 1.10567C0.784154 1.42716 0.552422 1.82721 0.43348 2.26604C-8.16168e-06 3.88279 0 7.25581 0 7.25581C0 7.25581 -8.16168e-06 10.6288 0.43348 12.2456C0.552422 12.6844 0.784154 13.0845 1.10565 13.406C1.42715 13.7275 1.8272 13.9592 2.26603 14.0781C3.88278 14.5116 10.3665 14.5116 10.3665 14.5116C10.3665 14.5116 16.8484 14.5116 18.4651 14.0781C18.9045 13.9602 19.305 13.7288 19.6267 13.4072C19.9484 13.0855 20.1798 12.6849 20.2977 12.2456C20.7312 10.6288 20.7311 7.25581 20.7311 7.25581C20.7311 7.25581 20.7312 3.88279 20.2977 2.26604ZM8.29208 10.3646V4.14698L13.6874 7.25581L8.29208 10.3646Z"/>
    </symbol>
</svg>